<?xml version="1.0" encoding="utf-8"?>
<!-- Generator: Adobe Illustrator 25.2.3, SVG Export Plug-In . SVG Version: 6.00 Build 0)  -->
<svg version="1.1" id="Layer_1" xmlns="http://www.w3.org/2000/svg" xmlns:xlink="http://www.w3.org/1999/xlink" x="0px" y="0px"
	 viewBox="0 0 50 50" style="enable-background:new 0 0 50 50;" xml:space="preserve">
<style type="text/css">
	.st0{fill:#FFC850;}
	.st1{fill:#EBAF4B;}
	.st2{fill:#FFDC64;}
	.st3{fill:#FF8087;}
	.st4{fill:#5D5360;}
	.st5{fill:#E1A546;}
	.st6{fill:#4B3F4E;}
	.st7{fill:#FFFFFF;}
	.st8{fill:#E6646E;}
</style>
<g>
	<path id="Path_829" class="st0" d="M43.4,0.36c0.69-0.56,1.71-0.46,2.28,0.24c0.23,0.29,0.36,0.65,0.36,1.02V23.3l-17.8-10.52
		L43.4,0.36z"/>
	<path id="Path_830" class="st1" d="M44.42,22.34l-10.84-6.41l9.03-10.18c0.38-0.43,1.03-0.47,1.46-0.09
		c0.22,0.2,0.35,0.48,0.35,0.77V22.34z"/>
	<path id="Path_831" class="st0" d="M6.6,0.36C5.91-0.2,4.89-0.1,4.33,0.6C4.09,0.89,3.96,1.25,3.96,1.62V23.3l17.8-10.52L6.6,0.36z
		"/>
	<path id="Path_832" class="st1" d="M5.58,22.34l10.84-6.41L7.39,5.76C7.01,5.33,6.36,5.29,5.93,5.67c-0.22,0.2-0.35,0.48-0.35,0.77
		L5.58,22.34z"/>
	<ellipse id="Ellipse_103" class="st2" cx="25" cy="28.56" rx="22.65" ry="21.44"/>
	<path id="Path_833" class="st3" d="M28.24,41.91v1.62c0,1.79-1.45,3.24-3.24,3.24l0,0l0,0c-1.79,0-3.24-1.45-3.24-3.24l0,0v-1.62
		L25,40.29L28.24,41.91z"/>
	<path id="Path_834" class="st4" d="M26.79,33.58h-3.57c-0.51,0-0.92,0.41-0.92,0.92c0,0.21,0.07,0.41,0.2,0.58l1.79,2.21
		c0.32,0.39,0.9,0.46,1.29,0.14c0.05-0.04,0.1-0.09,0.14-0.14l1.79-2.21c0.32-0.39,0.26-0.97-0.14-1.29
		C27.2,33.65,27,33.58,26.79,33.58z"/>
	<g id="Group_1896" transform="translate(33.437 35.436)">
		<path id="Path_835" class="st5" d="M13.41,7.28c-0.13,0-0.26-0.03-0.37-0.09C8.14,4.65,0.48,3.14,0.41,3.12
			c-0.44-0.09-0.72-0.51-0.64-0.95c0.09-0.44,0.51-0.72,0.95-0.64C1.04,1.6,8.68,3.1,13.78,5.76c0.4,0.21,0.55,0.69,0.35,1.09
			C13.99,7.11,13.71,7.28,13.41,7.28L13.41,7.28z"/>
		<path id="Path_836" class="st5" d="M15.03,1.62c-0.07,0-0.14-0.01-0.21-0.03C10.28,0.37,2.03,0.6,1.95,0.61
			C1.51,0.62,1.13,0.27,1.12-0.18C1.11-0.62,1.46-1,1.9-1.01l0,0c0.35-0.01,8.57-0.24,13.33,1.04c0.43,0.12,0.69,0.56,0.57,0.99
			C15.71,1.37,15.39,1.62,15.03,1.62L15.03,1.62z"/>
	</g>
	<path id="Path_837" class="st0" d="M30.67,48.38c-12.51,0-22.65-9.6-22.65-21.44c0.12-8.6,5.37-16.29,13.33-19.54
		c-10.78,1.66-19,10.5-19,21.16C2.35,40.4,12.49,50,25,50c3.2,0,6.37-0.64,9.32-1.9C33.11,48.29,31.89,48.38,30.67,48.38z"/>
	<g id="Group_1897" transform="translate(0 35.437)">
		<path id="Path_838" class="st5" d="M3.16,7.28c-0.45,0-0.81-0.36-0.81-0.81c0-0.3,0.17-0.58,0.44-0.72
			c5.1-2.65,12.74-4.16,13.06-4.22c0.44-0.09,0.86,0.2,0.95,0.64c0.09,0.44-0.2,0.86-0.64,0.95C16.08,3.14,8.42,4.65,3.53,7.19
			C3.42,7.25,3.29,7.28,3.16,7.28z"/>
		<path id="Path_839" class="st5" d="M1.54,1.62c-0.45,0-0.81-0.36-0.81-0.81c0-0.36,0.25-0.68,0.6-0.78
			c4.76-1.28,12.98-1.05,13.33-1.04c0.45,0.01,0.8,0.39,0.78,0.83c-0.01,0.45-0.39,0.8-0.83,0.78c-0.08,0-8.33-0.23-12.86,0.98
			C1.68,1.61,1.61,1.62,1.54,1.62z"/>
	</g>
	<path id="Path_840" class="st6" d="M15.7,31.39L15.7,31.39c-1.56,0-2.83-1.27-2.83-2.83v-1.62c0-1.56,1.27-2.83,2.83-2.83l0,0
		c1.56,0,2.83,1.27,2.83,2.83v1.62C18.52,30.12,17.26,31.39,15.7,31.39z"/>
	<path id="Path_841" class="st4" d="M15.69,24.11c-0.14,0-0.27,0.02-0.4,0.04v4c-0.02,0.89,0.68,1.64,1.58,1.66
		c0.89,0.02,1.64-0.68,1.66-1.58c0-0.03,0-0.05,0-0.08v-1.21C18.52,25.38,17.26,24.12,15.69,24.11z"/>
	<ellipse id="Ellipse_104" class="st7" cx="15.7" cy="26.13" rx="1.21" ry="1.21"/>
	<path id="Path_842" class="st6" d="M34.3,31.39L34.3,31.39c-1.56,0-2.83-1.27-2.83-2.83v-1.62c0-1.56,1.27-2.83,2.83-2.83l0,0
		c1.56,0,2.83,1.27,2.83,2.83v1.62C37.13,30.12,35.87,31.39,34.3,31.39z"/>
	<path id="Path_843" class="st4" d="M34.3,24.11c-0.14,0-0.27,0.02-0.4,0.04v4c-0.02,0.89,0.68,1.64,1.58,1.66
		c0.89,0.02,1.64-0.68,1.66-1.58c0-0.03,0-0.05,0-0.08v-1.21C37.13,25.38,35.87,24.12,34.3,24.11z"/>
	<ellipse id="Ellipse_105" class="st7" cx="34.3" cy="26.13" rx="1.21" ry="1.21"/>
	<path id="Path_844" class="st6" d="M25.63,37.32l-1.79-3.54c-0.03-0.07-0.05-0.13-0.07-0.2h-0.55c-0.51,0-0.92,0.41-0.92,0.92
		c0,0.21,0.07,0.41,0.2,0.58l1.79,2.21c0.32,0.39,0.89,0.44,1.28,0.13c0.03-0.02,0.05-0.05,0.08-0.07
		C25.64,37.33,25.63,37.33,25.63,37.32z"/>
	<path id="Path_845" class="st8" d="M25,40.29l-3.24,1.62v1.62c0,0.25,0.04,0.5,0.1,0.74c0.81-0.1,1.6-0.34,2.33-0.7v0.77
		c0,0.45,0.36,0.81,0.81,0.81c0.45,0,0.81-0.36,0.81-0.81v-0.77c0.73,0.36,1.52,0.6,2.33,0.7c0.06-0.24,0.09-0.49,0.1-0.74v-1.62
		L25,40.29z"/>
	<path id="Path_846" class="st1" d="M29.05,42.72c-1.14,0-2.25-0.34-3.19-0.98c-0.52-0.34-1.19-0.34-1.71,0
		c-2.15,1.47-5.03,1.28-6.97-0.47c-0.34-0.29-0.39-0.8-0.1-1.14c0.29-0.34,0.8-0.39,1.14-0.1c0.01,0.01,0.03,0.02,0.04,0.04
		c1.39,1.22,3.43,1.35,4.97,0.33c1.07-0.72,2.47-0.72,3.54,0c1.54,1.02,3.58,0.88,4.97-0.33c0.33-0.3,0.84-0.27,1.14,0.06
		c0.3,0.33,0.27,0.84-0.06,1.14C31.79,42.2,30.44,42.72,29.05,42.72z"/>
</g>
</svg>
