<?xml version="1.0" encoding="utf-8"?>
<!-- Generator: Adobe Illustrator 25.2.3, SVG Export Plug-In . SVG Version: 6.00 Build 0)  -->
<svg version="1.1" id="Layer_1" xmlns="http://www.w3.org/2000/svg" xmlns:xlink="http://www.w3.org/1999/xlink" x="0px" y="0px"
	 viewBox="0 0 50 50" style="enable-background:new 0 0 50 50;" xml:space="preserve">
<style type="text/css">
	.st0{fill:#F5DCB4;}
	.st1{fill:#965A50;}
	.st2{fill:#4B3F4E;}
	.st3{fill:#5D5360;}
	.st4{fill:#FFFFFF;}
	.st5{fill:#824641;}
	.st6{fill:#E7C9A5;}
	.st7{fill:#BC8E78;}
	.st8{fill:#FF8087;}
	.st9{fill:#E6646E;}
	.st10{fill:#D4AF91;}
</style>
<g id="Group_1898" transform="translate(-231 -233.822)">
	<path id="Path_847" class="st0" d="M273.74,238.26h-8.07c-2.92,1.16-3.57-0.81-9.68-0.81s-6.75,1.96-9.68,0.81h-8.07l-1.08,20.26
		c0.67,7.96,5.61,12.3,9.51,13.88h18.62c3.9-1.58,8.84-5.91,9.51-13.88L273.74,238.26z"/>
	<path id="Path_848" class="st1" d="M265.68,238.26c9.08,2.72,4.14,16.73,9.98,22.79c0.63,0.63,1.64,0.63,2.27,0
		c0.19-0.19,0.33-0.42,0.4-0.67c0.67-2.41,0.96-4.9,0.85-7.4c-0.1-4.74,1.82-5.04,1.82-5.04s-2.42-11.29-9.68-11.29
		C269.36,236.83,267.44,237.37,265.68,238.26z"/>
	<path id="Path_849" class="st2" d="M247.53,259.22L247.53,259.22c-1.56,0-2.82-1.27-2.82-2.82v-1.61c0-1.56,1.27-2.82,2.82-2.82
		l0,0c1.56,0,2.82,1.27,2.82,2.82v1.61C250.35,257.96,249.09,259.22,247.53,259.22z"/>
	<path id="Path_850" class="st3" d="M247.53,251.97c-0.13,0-0.27,0.02-0.4,0.04V256c0,0.89,0.72,1.61,1.61,1.61
		c0.89,0,1.61-0.72,1.61-1.61v-1.21C250.35,253.23,249.09,251.97,247.53,251.97z"/>
	<circle id="Ellipse_106" class="st4" cx="247.53" cy="253.98" r="1.21"/>
	<path id="Path_851" class="st2" d="M264.47,259.22L264.47,259.22c-1.56,0-2.82-1.27-2.82-2.82v-1.61c0-1.56,1.27-2.82,2.82-2.82
		l0,0c1.56,0,2.82,1.27,2.82,2.82v1.61C267.29,257.96,266.02,259.22,264.47,259.22z"/>
	<path id="Path_852" class="st3" d="M264.47,251.97c-0.13,0-0.27,0.02-0.4,0.04V256c-0.02,0.89,0.68,1.63,1.57,1.65
		c0.89,0.02,1.63-0.68,1.65-1.57c0-0.03,0-0.05,0-0.08v-1.21C267.29,253.23,266.03,251.97,264.47,251.97z"/>
	<circle id="Ellipse_107" class="st4" cx="264.47" cy="253.98" r="1.21"/>
	<path id="Path_853" class="st5" d="M275.66,261.05c0.63,0.63,1.64,0.63,2.27,0c0.19-0.19,0.33-0.42,0.4-0.67
		c0.34-1.16,0.57-2.35,0.69-3.55c-1.58-0.79-2.94-3.31-3.77-7.59c-1.51-7.76-3.63-12.1-9.58-10.99
		C274.76,240.98,269.81,254.99,275.66,261.05z"/>
	<path id="Path_854" class="st6" d="M246.69,272.4h3.82c0,0-6.71-4.5-7.82-12.47c-2.16-15.49,1.95-20.13,5.5-21.31
		c-0.64,0.01-1.28-0.11-1.87-0.36h-8.07l-1.08,20.26C237.85,266.48,242.79,270.82,246.69,272.4z"/>
	<path id="Path_855" class="st1" d="M246.32,238.26c-9.08,2.72-4.14,16.73-9.98,22.79c-0.63,0.63-1.64,0.63-2.27,0
		c-0.19-0.19-0.33-0.42-0.4-0.67c-0.67-2.41-0.96-4.9-0.85-7.4c0.1-4.74-1.82-5.04-1.82-5.04s2.42-11.29,9.68-11.29
		C242.64,236.83,244.56,237.37,246.32,238.26z"/>
	<path id="Path_856" class="st5" d="M246.05,238.13c-1.68-0.83-3.51-1.33-5.38-1.49c-7.26,0-9.68,11.29-9.68,11.29
		s1.92,0.3,1.82,5.04c0,0.06,0,0.12,0,0.18C237.45,235.55,244.59,237.51,246.05,238.13z"/>
	<ellipse id="Ellipse_108" class="st7" cx="256" cy="272.94" rx="8.87" ry="6.45"/>
	<path id="Path_857" class="st8" d="M251.97,272.93v4.03c0,2.23,1.81,4.03,4.03,4.03c2.23,0,4.03-1.81,4.03-4.03v-4.03H251.97z"/>
	<path id="Path_858" class="st9" d="M251.97,276.08c1.13-0.14,2.23-0.49,3.23-1.04v1.11c0,0.45,0.36,0.81,0.81,0.81
		c0.45,0,0.81-0.36,0.81-0.81c0,0,0,0,0,0v-1.12c1,0.56,2.09,0.91,3.23,1.05v-3.15h-8.06L251.97,276.08z"/>
	<path id="Path_859" class="st10" d="M261.24,265.68h-10.48c-3.34,0-6.05,1.99-6.05,4.44s2.71,4.43,6.05,4.43
		c1.54,0.03,3.04-0.43,4.3-1.32c0.56-0.41,1.33-0.41,1.89,0c1.26,0.88,2.76,1.35,4.3,1.32c3.34,0,6.05-1.99,6.05-4.43
		S264.58,265.68,261.24,265.68z"/>
	<path id="Path_860" class="st3" d="M256,262.45c2.67,0,4.84,1.44,4.84,3.23c0,1.72-2.03,2.62-3.5,3.29c-0.85,0.39-1.83,0.39-2.68,0
		c-1.47-0.67-3.5-1.57-3.5-3.29C251.16,263.9,253.33,262.45,256,262.45z"/>
	<path id="Path_861" class="st2" d="M253.55,264.79c-0.01-0.74,0.2-1.47,0.6-2.1c-1.76,0.48-3,1.64-3,2.98
		c0,1.72,2.03,2.62,3.5,3.29c0.85,0.39,1.83,0.39,2.67,0c0.32-0.14,0.66-0.3,1-0.47C256.35,268.15,253.78,266.84,253.55,264.79z"/>
</g>
</svg>
