<?xml version="1.0" encoding="utf-8"?>
<!-- Generator: Adobe Illustrator 25.2.3, SVG Export Plug-In . SVG Version: 6.00 Build 0)  -->
<svg version="1.1" id="Layer_1" xmlns="http://www.w3.org/2000/svg" xmlns:xlink="http://www.w3.org/1999/xlink" x="0px" y="0px"
	 viewBox="0 0 50 50" style="enable-background:new 0 0 50 50;" xml:space="preserve">
<style type="text/css">
	.st0{fill:#27E0C9;}
	.st1{fill:#17BFAB;}
	.st2{fill:#B56F40;}
	.st3{fill:#CC8656;}
	.st4{fill:#A35D2E;}
	.st5{fill:#FCF0E5;}
	.st6{fill:#EADDD3;}
	.st7{fill:#70695E;}
	.st8{fill:#5B554A;}
	.st9{fill:#3A352E;}
</style>
<g id="Group_1892" transform="translate(277 -15)">
	<g id="Group_1883" transform="translate(-277 15)">
		<g id="L1_2">
			<circle id="Ellipse_96" class="st0" cx="25" cy="25" r="25"/>
			<path id="Path_806" class="st1" d="M50,25c0-3.14-0.59-6.26-1.74-9.18l-2.53-2.5l-34.88,2.76L8.24,23.9l5.83,5.83l5.5,13.76
				l6.49,6.49C39.44,49.41,50,38.39,50,25z"/>
			<g id="Group_1882" transform="translate(3.845 9.582)">
				<g id="Group_1878">
					<g id="Group_1876">
						<path id="Path_807" class="st2" d="M16.53,3.89c0,0-4.68-3.8-6.2-3.62S7.01,5.74,7.01,5.74s2.66,4.79,3.63,6.97L16.53,3.89z"
							/>
						<path id="Path_808" class="st3" d="M11.58,0.59c-1-0.64-2.25-0.79-3.37-0.39c-2.27,0.67-4.48,1.53-6.6,2.56
							c-2.01,1-2.01,2.91-0.67,5.73c0.94,1.97,3.34,6.83,4.38,6.17c0.49-0.31,3.41-8.5,4.01-10.1C9.82,3.23,11.39,1.14,11.58,0.59z"
							/>
					</g>
					<g id="Group_1877" transform="translate(25.777)">
						<path id="Path_809" class="st4" d="M0,3.89c0,0,4.68-3.8,6.2-3.62s3.32,5.47,3.32,5.47s-2.66,4.79-3.63,6.97L0,3.89z"/>
						<path id="Path_810" class="st2" d="M4.96,0.59c1-0.64,2.25-0.79,3.37-0.39c2.27,0.67,4.48,1.53,6.6,2.56
							c2.01,1,2.01,2.91,0.67,5.73c-0.94,1.97-3.34,6.83-4.38,6.17c-0.49-0.31-3.41-8.5-4.01-10.1C6.72,3.23,5.14,1.14,4.96,0.59z"
							/>
					</g>
				</g>
				<g id="Group_1880" transform="translate(8.963 2.166)">
					<path id="Path_811" class="st5" d="M23.46,19.9c-0.13,0.27-0.27,0.55-0.42,0.84c-3.44,6.55-2.2,12.6-10.71,12.6
						c-8.51,0-7.27-6.05-10.71-12.6c-0.15-0.29-0.29-0.57-0.42-0.84c1.32-3.16,2.29-6.47,2.89-9.84c0.87-4.89,5.94-9.84,5.94-9.84
						C10.78,0.08,11.55,0,12.33,0c0.78,0,1.55,0.07,2.32,0.22c0,0,4.93,4.95,5.8,9.84C21.05,13.45,22.06,16.76,23.46,19.9z"/>
					<path id="Path_812" class="st6" d="M23.46,19.9c-0.13,0.27-0.27,0.55-0.42,0.84c-3.44,6.55-2.2,12.6-10.71,12.6h-0.13V0h0.13
						c0.78,0,1.55,0.07,2.32,0.22c0,0,4.93,4.95,5.8,9.84C21.04,13.45,22.06,16.76,23.46,19.9z"/>
					<path id="Path_813" class="st7" d="M12.19,22.18c-2.48,0-4.66,0.15-4.02,3.03c0.41,1.86,3.04,3.19,4.02,3.19
						s3.61-1.33,4.02-3.19C16.85,22.33,14.67,22.18,12.19,22.18z"/>
					<path id="Path_814" class="st8" d="M16.21,25.22c-0.41,1.86-3.04,3.19-4.02,3.19v-6.23C14.67,22.18,16.85,22.33,16.21,25.22z"
						/>
					<g id="Group_1879" transform="translate(0 0.217)">
						<path id="Path_815" class="st3" d="M8.69,17.22c-2.36,1.21-4.89,2.04-7.5,2.46c-2.77-5.72,0.03-5.97,1.04-11.62
							C2.81,3.93,6.02,0.66,10.14,0C10.42,4.34,11.95,15.16,8.69,17.22z"/>
						<path id="Path_816" class="st2" d="M23.46,19.68c-1.98-0.36-5.52-1.21-7.44-2.42C12.77,15.2,14.23,4.34,14.51,0
							c4.12,0.66,7.34,3.93,7.92,8.07C23.43,13.71,26.23,13.96,23.46,19.68z"/>
					</g>
				</g>
				<g id="Group_1881" transform="translate(13.026 12.998)">
					<circle id="Ellipse_97" class="st8" cx="1.56" cy="1.56" r="1.56"/>
					<circle id="Ellipse_98" class="st9" cx="14.57" cy="1.6" r="1.56"/>
				</g>
			</g>
		</g>
	</g>
	<g id="Group_1891" transform="translate(-277 15)">
		<g id="L1_2-2">
			<circle id="Ellipse_99" class="st0" cx="25" cy="25" r="25"/>
			<path id="Path_817" class="st1" d="M50,25c0-3.14-0.59-6.26-1.74-9.18l-2.53-2.5l-34.88,2.76L8.24,23.9l5.83,5.83l5.5,13.76
				l6.49,6.49C39.44,49.41,50,38.39,50,25z"/>
			<g id="Group_1890" transform="translate(3.845 9.582)">
				<g id="Group_1886">
					<g id="Group_1884">
						<path id="Path_818" class="st2" d="M16.53,3.89c0,0-4.68-3.8-6.2-3.62S7.01,5.74,7.01,5.74s2.66,4.79,3.63,6.97L16.53,3.89z"
							/>
						<path id="Path_819" class="st3" d="M11.58,0.59c-1-0.64-2.25-0.79-3.37-0.39c-2.27,0.67-4.48,1.53-6.6,2.56
							c-2.01,1-2.01,2.91-0.67,5.73c0.94,1.97,3.34,6.83,4.38,6.17c0.49-0.31,3.41-8.5,4.01-10.1C9.82,3.23,11.39,1.14,11.58,0.59z"
							/>
					</g>
					<g id="Group_1885" transform="translate(25.777)">
						<path id="Path_820" class="st4" d="M0,3.89c0,0,4.68-3.8,6.2-3.62s3.32,5.47,3.32,5.47s-2.66,4.79-3.63,6.97L0,3.89z"/>
						<path id="Path_821" class="st2" d="M4.96,0.59c1-0.64,2.25-0.79,3.37-0.39c2.27,0.67,4.48,1.53,6.6,2.56
							c2.01,1,2.01,2.91,0.67,5.73c-0.94,1.97-3.34,6.83-4.38,6.17c-0.49-0.31-3.41-8.5-4.01-10.1C6.72,3.23,5.14,1.14,4.96,0.59z"
							/>
					</g>
				</g>
				<g id="Group_1888" transform="translate(8.963 2.166)">
					<path id="Path_822" class="st5" d="M23.46,19.9c-0.13,0.27-0.27,0.55-0.42,0.84c-3.44,6.55-2.2,12.6-10.71,12.6
						c-8.51,0-7.27-6.05-10.71-12.6c-0.15-0.29-0.29-0.57-0.42-0.84c1.32-3.16,2.29-6.47,2.89-9.84c0.87-4.89,5.94-9.84,5.94-9.84
						C10.78,0.08,11.55,0,12.33,0c0.78,0,1.55,0.07,2.32,0.22c0,0,4.93,4.95,5.8,9.84C21.05,13.45,22.06,16.76,23.46,19.9z"/>
					<path id="Path_823" class="st6" d="M23.46,19.9c-0.13,0.27-0.27,0.55-0.42,0.84c-3.44,6.55-2.2,12.6-10.71,12.6h-0.13V0h0.13
						c0.78,0,1.55,0.07,2.32,0.22c0,0,4.93,4.95,5.8,9.84C21.04,13.45,22.06,16.76,23.46,19.9z"/>
					<path id="Path_824" class="st7" d="M12.19,22.18c-2.48,0-4.66,0.15-4.02,3.03c0.41,1.86,3.04,3.19,4.02,3.19
						s3.61-1.33,4.02-3.19C16.85,22.33,14.67,22.18,12.19,22.18z"/>
					<path id="Path_825" class="st8" d="M16.21,25.22c-0.41,1.86-3.04,3.19-4.02,3.19v-6.23C14.67,22.18,16.85,22.33,16.21,25.22z"
						/>
					<g id="Group_1887" transform="translate(0 0.217)">
						<path id="Path_826" class="st3" d="M8.69,17.22c-2.36,1.21-4.89,2.04-7.5,2.46c-2.77-5.72,0.03-5.97,1.04-11.62
							C2.81,3.93,6.02,0.66,10.14,0C10.42,4.34,11.95,15.16,8.69,17.22z"/>
						<path id="Path_827" class="st2" d="M23.46,19.68c-1.98-0.36-5.52-1.21-7.44-2.42C12.77,15.2,14.23,4.34,14.51,0
							c4.12,0.66,7.34,3.93,7.92,8.07C23.43,13.71,26.23,13.96,23.46,19.68z"/>
					</g>
				</g>
				<g id="Group_1889" transform="translate(13.026 12.998)">
					<circle id="Ellipse_100" class="st8" cx="1.56" cy="1.56" r="1.56"/>
					<circle id="Ellipse_101" class="st9" cx="14.57" cy="1.6" r="1.56"/>
				</g>
			</g>
		</g>
	</g>
</g>
</svg>
