<?xml version="1.0" encoding="utf-8"?>
<!-- Generator: Adobe Illustrator 25.2.3, SVG Export Plug-In . SVG Version: 6.00 Build 0)  -->
<svg version="1.1" id="Layer_1" xmlns="http://www.w3.org/2000/svg" xmlns:xlink="http://www.w3.org/1999/xlink" x="0px" y="0px"
	 viewBox="0 0 50 50" style="enable-background:new 0 0 50 50;" xml:space="preserve">
<style type="text/css">
	.st0{fill:#6A736F;}
</style>
<g id="Component_21" transform="translate(0)">
	<ellipse id="Ellipse_94" class="st0" cx="34.37" cy="15.84" rx="9.37" ry="9.16"/>
	<path id="Path_801" class="st0" d="M34.37,28.05c-12.5,0-15.62,9.16-15.62,12.21c-0.01,1.68,1.35,3.05,3.02,3.05
		c0.03,0,0.06,0,0.09,0h25c1.68,0.05,3.08-1.26,3.14-2.94c0-0.04,0-0.08,0-0.11C50,37.21,46.87,28.05,34.37,28.05z"/>
	<path id="Path_802" class="st0" d="M21.67,28.91c-1.96-0.59-4-0.88-6.05-0.85C3.12,28.05,0,37.21,0,40.26
		c-0.01,1.68,1.35,3.05,3.02,3.05c0.03,0,0.07,0,0.1,0H16.3c-0.46-0.95-0.69-2-0.68-3.05C15.75,35.74,17.99,31.54,21.67,28.91z"/>
	
		<ellipse id="Ellipse_95" transform="matrix(0.9871 -0.1602 0.1602 0.9871 -2.5973 2.4715)" class="st0" cx="14.03" cy="17.35" rx="7.81" ry="7.64"/>
</g>
</svg>
