<?xml version="1.0" encoding="utf-8"?>
<!-- Generator: Adobe Illustrator 25.2.3, SVG Export Plug-In . SVG Version: 6.00 Build 0)  -->
<svg version="1.1" id="Layer_1" xmlns="http://www.w3.org/2000/svg" xmlns:xlink="http://www.w3.org/1999/xlink" x="0px" y="0px"
	 viewBox="0 0 50 50" style="enable-background:new 0 0 50 50;" xml:space="preserve">
<style type="text/css">
	.st0{fill:#FFFFFF;}
	.st1{fill-rule:evenodd;clip-rule:evenodd;fill:#FFFFFF;}
</style>
<g>
	<circle id="Ellipse_93_1_" class="st0" cx="24.99" cy="18.79" r="9.71"/>
	<path id="Path_800_1_" class="st1" d="M25,0C11.19,0,0,11.19,0,25l0,0c0,13.81,11.19,25,25,25s25-11.19,25-25S38.81,0,25,0z
		 M42.09,38.66c-2.22-3.58-7.1-7.41-17.09-7.41s-14.87,3.83-17.09,7.41C4.81,34.78,3.12,29.96,3.12,25
		C3.12,12.92,12.92,3.13,25,3.13c0,0,0,0,0,0c4.96,0,9.78,1.69,13.66,4.78C48.09,15.45,49.63,29.22,42.09,38.66L42.09,38.66z"/>
</g>
</svg>
