<?xml version="1.0" encoding="utf-8"?>
<!-- Generator: Adobe Illustrator 25.2.3, SVG Export Plug-In . SVG Version: 6.00 Build 0)  -->
<svg version="1.1" id="Layer_1" xmlns="http://www.w3.org/2000/svg" xmlns:xlink="http://www.w3.org/1999/xlink" x="0px" y="0px"
	 viewBox="0 0 50 50" style="enable-background:new 0 0 50 50;" xml:space="preserve">
<style type="text/css">
	.st0{fill:#6A736F;}
</style>
<path id="Path_803" class="st0" d="M0,35.71c0-1.97,1.6-3.57,3.57-3.57h7.14c1.97,0,3.57,1.6,3.57,3.57v10.71
	c0,1.97-1.6,3.57-3.57,3.57H3.57C1.6,50,0,48.4,0,46.43V35.71z M17.86,21.43c0-1.97,1.6-3.57,3.57-3.57h0h7.14
	c1.97,0,3.57,1.6,3.57,3.57l0,0v25c0,1.97-1.6,3.57-3.57,3.57h-7.14c-1.97,0-3.57-1.6-3.57-3.57L17.86,21.43z M35.71,3.57
	c0-1.97,1.6-3.57,3.57-3.57h7.14C48.4,0,50,1.6,50,3.57v42.86C50,48.4,48.4,50,46.43,50h-7.14c-1.97,0-3.57-1.6-3.57-3.57V3.57z"/>
</svg>
